<?xml version="1.0" encoding="UTF-8" standalone="no"?>
<!-- Created with Inkscape (http://www.inkscape.org/) -->

<svg
   width="210mm"
   height="297mm"
   viewBox="0 0 210 297"
   version="1.1"
   id="svg1"
   xmlns="http://www.w3.org/2000/svg"
   xmlns:svg="http://www.w3.org/2000/svg">
  <defs
     id="defs1">
    <filter
       style="color-interpolation-filters:sRGB"
       id="filter20"
       x="-1.1944426"
       y="-1.0051025"
       width="3.3889005"
       height="3.010207">
      <feGaussianBlur
         stdDeviation="25.31391"
         id="feGaussianBlur20" />
    </filter>
    <filter
       style="color-interpolation-filters:sRGB"
       id="filter21"
       x="-0.94254375"
       y="-0.86511124"
       width="2.8850887"
       height="2.7302158">
      <feGaussianBlur
         stdDeviation="25.31391"
         id="feGaussianBlur21" />
    </filter>
    <filter
       style="color-interpolation-filters:sRGB"
       id="filter22"
       x="-0.65568735"
       y="-0.57284235"
       width="2.3113746"
       height="2.1456809">
      <feGaussianBlur
         stdDeviation="25.31391"
         id="feGaussianBlur22" />
    </filter>
    <filter
       style="color-interpolation-filters:sRGB"
       id="filter23"
       x="-0.810509"
       y="-0.72462817"
       width="2.6210143"
       height="2.4492425">
      <feGaussianBlur
         stdDeviation="33.083306"
         id="feGaussianBlur23" />
    </filter>
    <filter
       style="color-interpolation-filters:sRGB"
       id="filter25"
       x="-0.77907065"
       y="-0.99604064"
       width="2.5581633"
       height="2.9924446">
      <feGaussianBlur
         stdDeviation="20.494353"
         id="feGaussianBlur25" />
    </filter>
    <filter
       style="color-interpolation-filters:sRGB"
       id="filter26"
       x="-0.49517435"
       y="-0.68033103"
       width="1.9903755"
       height="2.3606529">
      <feGaussianBlur
         stdDeviation="14.710957"
         id="feGaussianBlur26" />
    </filter>
    <filter
       style="color-interpolation-filters:sRGB"
       id="filter27"
       x="-0.5378787"
       y="-0.76382213"
       width="2.0757461"
       height="2.5276404">
      <feGaussianBlur
         stdDeviation="13.504114"
         id="feGaussianBlur27" />
    </filter>
    <filter
       style="color-interpolation-filters:sRGB"
       id="filter28"
       x="-0.76898995"
       y="-0.67642884"
       width="2.5379726"
       height="2.3529134">
      <feGaussianBlur
         stdDeviation="12.273984"
         id="feGaussianBlur28" />
    </filter>
  </defs>
  <g
     id="layer1">
    <path
       style="opacity:0.994437;mix-blend-mode:normal;fill:#00ffff;stroke:#50c3d6;stroke-width:0.145;filter:url(#filter20)"
       d="m 154.79822,13.210351 c 2.10205,8.799721 -6.32795,17.859795 -8.46817,26.420704 -3.02737,12.109471 3.40309,23.890535 13.54908,30.485426 4.78665,3.111325 11.13502,3.387267 16.59761,3.387267 5.12287,0 13.38637,-0.344048 17.61381,-3.725995 1.34913,-1.079307 1.36492,-3.776054 1.69363,-5.419632 0.43255,-2.162728 1.17271,-6.721959 0.33873,-8.8069 -4.34674,-10.866837 -16.48692,-19.87419 -24.72707,-28.114339 -4.25719,-4.257193 -8.63334,-8.633344 -12.87162,-12.871623 -0.79643,-0.796425 -1.16623,-0.284818 -1.35491,-0.338727 -0.82681,-0.23623 -2.05174,-1.814568 -2.37109,-1.016181 -0.3956,0.988996 1.17634,1.77868 1.69364,2.709816 0.21964,0.395354 0,1.56741 0,2.032362"
       id="path18"
       transform="matrix(0.83500254,0,0,0.610918,-4.1754137,-16.761685)" />
    <path
       style="opacity:0.994437;mix-blend-mode:normal;fill:#0000ff;stroke:#50c3d6;stroke-width:0.145;filter:url(#filter21)"
       d="m 136.50696,56.228675 c 4.04004,5.72911 2.69272,13.787951 -1.35491,19.307437 -3.80222,5.184857 -16.10259,15.021329 -17.95253,19.646161 -0.68689,1.717234 -1.01617,7.343627 -1.01617,9.145627 0,26.39172 46.84359,20.67871 59.27721,5.75836 4.85959,-5.8315 5.69472,-19.393672 5.08091,-26.759429 -0.34702,-4.164258 -2.79129,-8.278812 -4.74218,-11.855444 -5.82137,-10.6725 -10.98613,-17.357505 -23.71089,-18.629982 -1.40086,-0.140086 -3.68886,-0.686736 -5.0809,-0.338727 -1.79113,0.447783 -8.12336,10.173988 -9.14563,8.129447 -0.45407,-0.908148 -1.10767,-3.744151 -1.35491,-4.40345 z"
       id="path19"
       transform="matrix(0.83500254,0,0,0.610918,-4.1754137,-16.761685)" />
    <path
       style="opacity:0.994437;mix-blend-mode:normal;fill:#000080;stroke:#50c3d6;stroke-width:0.145;filter:url(#filter22)"
       d="m 66.390483,118.55443 c -3.194127,3.1465 -3.557444,7.6173 -2.709817,11.85545 0.3469,1.73449 0.709011,5.11246 2.032362,6.43581 5.33369,5.33369 14.49352,4.48258 21.001072,1.69363 14.72222,-6.30952 17.64438,-24.52137 24.38834,-37.25996 2.86385,-5.409511 7.12942,-12.452286 10.83926,-17.275076 3.35004,-4.355058 7.85143,-8.47775 12.19418,-11.855445 5.34197,-4.154863 13.09647,-6.246495 17.6138,-11.516717 4.30869,-5.0268 6.5679,-11.045902 1.01618,-16.597619 -5.97796,-5.977967 -17.18549,-7.821864 -25.06579,-8.806902 -11.13556,-1.391944 -24.18732,-1.037291 -33.872706,5.419632 -4.329043,2.88603 -12.93609,17.807204 -14.565256,22.694707 -2.125377,6.376127 -3.784444,15.313114 -4.742178,22.017251 -1.855483,12.988364 -0.272618,27.081789 1.01618,39.969779 0.447159,4.4716 1.01618,8.32595 1.01618,12.87163 0,0.2067 -0.131979,1.22292 0,1.3549 0.847738,0.84774 1.016183,1.36589 1.016183,-0.67745"
       id="path20"
       transform="matrix(0.83500254,0,0,0.610918,-4.1754137,-16.761685)" />
    <path
       style="opacity:0.994437;mix-blend-mode:normal;fill:#00ffff;stroke:#50c3d6;stroke-width:0.145;filter:url(#filter23)"
       d="M 40.647233,26.759429 C 36.547509,27.421546 33.972682,33.222551 30.485426,35.905056 15.572741,47.376352 6.2521253,59.512295 4.4034503,78.923379 3.7154725,86.147147 4.2196797,95.654698 8.8069009,101.61809 c 8.0228691,10.42972 19.4190501,12.97266 30.4854251,17.95252 18.97666,8.5395 24.695557,20.82777 48.437955,12.19417 4.74181,-1.72429 9.807893,-4.6966 11.516717,-9.82308 0.772732,-2.3182 0.0024,-4.75825 0.338725,-7.11326 0.943657,-6.60558 3.406717,-12.40326 2.371087,-19.307439 C 100.4316,85.352926 91.976926,78.181001 85.697919,70.793935 76.833927,60.365708 68.041302,49.922977 57.92231,40.647233 56.533647,39.374296 38.42332,24.241165 37.598691,25.065795 c -0.714097,0.714099 -0.794721,1.869537 -1.354908,2.709816"
       id="path22"
       transform="matrix(0.83500254,0,0,0.610918,-4.1754137,-16.761685)" />
    <path
       style="opacity:0.994437;mix-blend-mode:normal;fill:#00ffff;stroke:#50c3d6;stroke-width:0.145;filter:url(#filter25)"
       d="m 149.03986,102.63427 c -4.14532,3.55028 -7.55955,8.237 -11.51672,12.19417 -7.33984,7.33984 -14.25933,17.11843 -6.77454,27.09815 3.38246,4.50994 9.4136,8.30785 14.90399,9.48436 12.7934,2.74144 36.93069,-3.20857 44.37323,-14.90399 1.66333,-2.6138 -0.0191,-6.09016 -0.33873,-8.8069 -0.55645,-4.72981 -2.40842,-10.1898 -6.43581,-13.21035 -2.46531,-1.84898 -16.74297,-6.82299 -20.66234,-8.12945 -2.36322,-0.78774 -6.30557,0 -8.8069,0 -1.51381,0 -2.7332,1.01151 -4.40345,0.67746 -0.47393,-0.0948 -3.56018,-1.52073 -3.726,-1.35491 -0.23952,0.23951 0,0.67745 0,1.01618"
       id="path25"
       transform="matrix(0.83500254,0,0,0.610918,-4.1754137,-16.761685)" />
    <path
       style="opacity:0.994437;mix-blend-mode:normal;fill:#00ffff;stroke:#50c3d6;stroke-width:0.145;filter:url(#filter26)"
       d="m 199.17145,176.47674 c -1.01637,-0.84697 -2.04749,-1.96915 -3.38727,-2.37109 -2.78826,-0.83648 -6.39889,0.0992 -9.14563,0.67746 -17.94965,3.77887 -41.69565,20.25913 -31.16288,41.32468 1.79568,3.59136 3.20247,6.52958 7.11327,8.12945 13.87773,5.67726 34.96992,-5.61771 46.06686,-13.21035 5.38575,-3.68499 13.92104,-8.52471 15.58144,-15.58144 0.67337,-2.86179 -2.83411,-5.0931 -4.40345,-6.77454 -4.45683,-4.77517 -9.02113,-11.90352 -16.25889,-12.5329 -1.46662,-0.12753 -2.94267,0.52133 -4.40345,0.33873 -14.54351,-1.81794 7.38053,-1.35491 -7.79072,-1.35491 -2.59353,0 -3.38258,-0.0899 -6.09709,0.33873 -0.65927,0.1041 -9.1853,2.70982 -6.09708,2.70982"
       id="path26"
       transform="matrix(0.88928722,0,0,0.76059088,28.963443,-13.362919)" />
    <path
       style="opacity:0.994437;fill:#0000ff;stroke:#50c3d6;stroke-width:0.145;filter:url(#filter27)"
       d="m 25.065795,200.18763 c -0.969764,-0.59399 -0.875644,-2.58586 -2.032362,-3.04854 -0.866205,-0.34649 -1.403865,0.22853 -2.032362,0.67745 -4.784829,3.41774 -5.563703,11.71291 -3.38727,16.93635 3.181623,7.63589 15.694541,10.73239 22.35598,13.8878 6.243963,2.95767 30.240528,15.72106 35.905056,7.79072 1.916453,-2.68303 0.571026,-5.40019 -0.338725,-8.12944 -5.730968,-17.1929 -28.091746,-20.0736 -43.018323,-25.40452 -2.27628,-0.81296 -5.43514,-1.54217 -7.451994,-2.70982 -1.388783,-0.80403 -2.349945,-2.22291 -3.725997,-3.04854 -2.143935,-1.28637 -4.192196,-0.33873 -2.709816,-0.33873"
       id="path27"
       transform="matrix(1.72369,0,0,1.392963,-43.20566,-154.51679)" />
    <path
       style="opacity:0.994437;fill:#00ffff;stroke:#50c3d6;stroke-width:0.145;filter:url(#filter28)"
       d="m 74.645447,249.64176 c -12.224483,-7.45396 -35.652,22.4746 -34.550148,31.84033 1.152154,9.79333 19.431185,13.06139 26.420701,8.8069 4.852376,-2.95362 8.401992,-7.28653 10.500537,-12.53289 1.66801,-4.17003 3.018092,-22.6442 -2.709817,-24.72707 -3.360455,-1.22199 -7.133326,0.82097 -10.161807,2.03236 -1.735611,0.69425 -5.918343,1.67487 -6.77454,3.38727"
       id="path28"
       transform="matrix(1.4628631,0,0,1.1470911,-26.641381,-135.11576)" />
    <path
       style="opacity:0.994437;mix-blend-mode:normal;fill:#00ffff;stroke:#50c3d6;stroke-width:0.145;filter:url(#filter23)"
       d="M 40.647233,26.759429 C 36.547509,27.421546 33.972682,33.222551 30.485426,35.905056 15.572741,47.376352 6.2521253,59.512295 4.4034503,78.923379 3.7154725,86.147147 4.2196797,95.654698 8.8069009,101.61809 c 8.0228691,10.42972 19.4190501,12.97266 30.4854251,17.95252 18.97666,8.5395 24.695557,20.82777 48.437955,12.19417 4.74181,-1.72429 9.807893,-4.6966 11.516717,-9.82308 0.772732,-2.3182 0.0024,-4.75825 0.338725,-7.11326 0.943657,-6.60558 3.406717,-12.40326 2.371087,-19.307439 C 100.4316,85.352926 91.976926,78.181001 85.697919,70.793935 76.833927,60.365708 68.041302,49.922977 57.92231,40.647233 56.533647,39.374296 38.42332,24.241165 37.598691,25.065795 c -0.714097,0.714099 -0.794721,1.869537 -1.354908,2.709816"
       id="path29"
       transform="matrix(0.83500254,0,0,0.610918,124.8658,202.73338)" />
    <path
       style="opacity:0.994437;mix-blend-mode:normal;fill:#000080;stroke:#50c3d6;stroke-width:0.145;filter:url(#filter22)"
       d="m 66.390483,118.55443 c -3.194127,3.1465 -3.557444,7.6173 -2.709817,11.85545 0.3469,1.73449 0.709011,5.11246 2.032362,6.43581 5.33369,5.33369 14.49352,4.48258 21.001072,1.69363 14.72222,-6.30952 17.64438,-24.52137 24.38834,-37.25996 2.86385,-5.409511 7.12942,-12.452286 10.83926,-17.275076 3.35004,-4.355058 7.85143,-8.47775 12.19418,-11.855445 5.34197,-4.154863 13.09647,-6.246495 17.6138,-11.516717 4.30869,-5.0268 6.5679,-11.045902 1.01618,-16.597619 -5.97796,-5.977967 -17.18549,-7.821864 -25.06579,-8.806902 -11.13556,-1.391944 -24.18732,-1.037291 -33.872706,5.419632 -4.329043,2.88603 -12.93609,17.807204 -14.565256,22.694707 -2.125377,6.376127 -3.784444,15.313114 -4.742178,22.017251 -1.855483,12.988364 -0.272618,27.081789 1.01618,39.969779 0.447159,4.4716 1.01618,8.32595 1.01618,12.87163 0,0.2067 -0.131979,1.22292 0,1.3549 0.847738,0.84774 1.016183,1.36589 1.016183,-0.67745"
       id="path30"
       transform="matrix(0.83500254,0,0,0.610918,23.60984,187.62717)" />
  </g>
</svg>
